# xmcd
#
# Track frame offsets:
#	150
#	13088
#	21159
#	30825
#	47751
#	58956
#	69493
#	81940
#	91646
#	105235
#	116693
#	128809
#	139196
#	151333
#	161517
#	172608
#	184098
#	194502
#	204311
#	216375
#	224953
#	235042
#	245114
#	262487
#	272366
#	283588
#	297337
#	305888
#	317027
#	328541
#	338072
#
# Disc length: 4692 seconds
#
# Revision: 1
# Processed by: cddbd v1.5.2PL0 Copyright (c) Steve Scherf et al.
# Submitted via: audiograbber 1.82.01
#
DISCID=d012521f
DTITLE=Various Artist - The House Of Cash Alikes Vol. 2
DYEAR=1900
DGENRE=Country
TTITLE0=Neil Parker - Tennessee Cat
TTITLE1=Bobby Wayne - Big Train
TTITLE2=Wayne Cross - Stranger In Black
TTITLE3=Stan Farlow - Hot Wheels
TTITLE4=Johnny Sea - My Baby Walks All Over Me
TTITLE5=Houston Banks - She's Gone
TTITLE6=Johnny Nelms - Mr. Freight Train
TTITLE7=Sammy Julian - Lead Guitar Man
TTITLE8=Johnny Starr - Lewisburg Prison
TTITLE9=Tom Edwards - Cook Country Jail
TTITLE10=Johnny Price - Marijuana, The Devil Flower
TTITLE11=Buzz Martin - Cummins Prison
TTITLE12=Bill Compton - Iron Man
TTITLE13=Jesse Travers - Blues Express
TTITLE14=Al Terry - My Baby Knows
TTITLE15=Bobby Rowan - So Doggone Lonesome
TTITLE16=Rusty Adams - I Walk The Line
TTITLE17=Johnny Sea - It Won't Easy To Forget
TTITLE18=Trooper Jim Foster - Four On The Floor
TTITLE19=Bobby Wayne - TV Dream
TTITLE20=Howard Crocket - I've Been A Long Time Leaving
TTITLE21=Jimmy Minor - So Doggone Lonesome
TTITLE22=Johnny Doe - A Boy Named Sue
TTITLE23=Louis Williams - A Girl Named Sam
TTITLE24=Jane Morgan - A Girl Named Johnny Cash
TTITLE25=Jeffrey J Jeffery - A Sioux Named Boy
TTITLE26=Wayne Cross - Hey Mr. Guitar Man
TTITLE27=Charlie Stewart - Who'd Lie On Johnny Cash
TTITLE28=Bashful Bobby Wooten - Goin' Deer Huntin'
TTITLE29=Dick Nolan - All Over Again
TTITLE30=Mitchell Torok - All Over Again and Again
EXTD=
EXTT0=
EXTT1=
EXTT2=
EXTT3=
EXTT4=
EXTT5=
EXTT6=
EXTT7=
EXTT8=
EXTT9=
EXTT10=
EXTT11=
EXTT12=
EXTT13=
EXTT14=
EXTT15=
EXTT16=
EXTT17=
EXTT18=
EXTT19=
EXTT20=
EXTT21=
EXTT22=
EXTT23=
EXTT24=
EXTT25=
EXTT26=
EXTT27=
EXTT28=
EXTT29=
EXTT30=
PLAYORDER=
